<?xml version="1.0" standalone="no"?>
<!DOCTYPE svg PUBLIC "-//W3C//DTD SVG 20010904//EN"
 "http://www.w3.org/TR/2001/REC-SVG-20010904/DTD/svg10.dtd">
<svg version="1.0" xmlns="http://www.w3.org/2000/svg"
 width="640.000000pt" height="640.000000pt" viewBox="0 0 640.000000 640.000000"
 preserveAspectRatio="xMidYMid meet">
<metadata>
Created by potrace 1.14, written by Peter Selinger 2001-2017
</metadata>
<g transform="translate(0.000000,640.000000) scale(0.100000,-0.100000)"
fill="#000000" stroke="none">
<path d="M2391 6348 c-39 -174 -43 -213 -37 -355 3 -78 3 -149 0 -158 -4 -9
-37 -36 -74 -60 -87 -58 -99 -72 -116 -140 -17 -66 -9 -106 33 -156 29 -34 92
-69 125 -69 30 0 83 -33 104 -65 22 -33 31 -83 53 -295 26 -241 10 -317 -88
-435 -77 -93 -140 -241 -160 -380 -55 -377 -43 -766 30 -972 17 -48 40 -115
51 -148 11 -33 26 -66 33 -74 15 -15 103 -17 117 -3 5 5 -5 39 -23 77 -32 72
-33 111 -1 122 9 3 48 24 85 45 38 22 75 37 83 34 17 -7 54 -88 54 -121 0 -22
-32 -55 -114 -118 -21 -16 -34 -32 -31 -35 4 -4 69 -8 146 -8 l140 -1 14 28
c11 21 28 31 67 42 131 35 207 48 254 42 41 -6 62 -1 123 24 40 16 126 40 190
51 64 12 135 29 159 37 28 10 58 13 90 8 40 -5 51 -3 66 14 23 26 140 65 170
57 15 -4 28 -18 35 -38 15 -41 -4 -71 -62 -98 -46 -22 -291 -95 -353 -105 -22
-4 -52 -11 -69 -15 -16 -5 -49 -14 -72 -20 -24 -6 -43 -14 -43 -19 0 -5 163
-7 363 -6 l362 2 -3 49 c-2 27 -8 66 -13 88 -13 47 -46 325 -60 506 -7 81 -9
262 -6 450 7 432 6 426 191 699 53 78 96 147 96 153 0 6 25 66 55 133 30 68
55 131 55 142 0 10 6 27 14 38 7 11 23 56 36 100 61 214 61 215 90 415 15 109
14 339 -3 455 -21 140 -18 135 -92 135 -40 0 -67 -5 -74 -13 -20 -24 -86 -39
-115 -26 -14 7 -26 18 -26 26 0 9 -15 13 -51 13 l-51 0 6 -37 c13 -83 26 -286
27 -418 1 -162 -13 -218 -101 -401 -51 -106 -69 -126 -99 -107 -15 10 -23 30
-62 165 -35 124 -18 199 65 288 29 31 50 66 62 104 17 53 17 58 1 91 -28 60
-68 77 -165 72 -83 -3 -84 -3 -107 27 -21 28 -49 114 -62 189 -5 27 -6 27 -78
27 l-73 0 40 -92 c22 -51 51 -119 64 -150 14 -32 29 -83 34 -114 5 -31 25 -89
44 -128 32 -64 76 -224 76 -274 0 -10 13 -57 29 -103 44 -130 55 -205 48 -348
-7 -144 -21 -203 -73 -308 -39 -79 -131 -188 -181 -213 -15 -8 -48 -29 -73
-46 -55 -38 -153 -85 -237 -113 -78 -26 -188 -28 -292 -4 -64 15 -94 30 -196
99 -102 69 -126 90 -163 145 -55 83 -82 155 -93 254 -5 44 -13 103 -19 130 -5
28 -9 77 -9 110 -1 33 -10 107 -21 165 -22 116 -40 317 -40 452 0 94 15 172
55 285 14 40 25 79 25 87 0 8 13 47 30 87 16 41 30 75 30 77 0 1 -51 2 -113 2
l-114 0 -12 -52z m2046 -240 c20 -25 25 -135 9 -166 -25 -48 -133 -81 -164
-50 -12 12 -17 143 -6 172 3 9 14 16 24 16 10 0 37 9 61 20 52 23 63 24 76 8z
m-497 -38 c26 -26 25 -58 -5 -117 -27 -55 -71 -85 -82 -56 -4 11 3 24 22 40
32 28 25 41 -27 52 -26 5 -34 12 -36 34 -3 24 2 30 40 47 54 25 63 25 88 0z
m-1558 -367 c28 -25 23 -61 -9 -74 -49 -19 -58 -26 -61 -43 -4 -19 28 -22 46
-4 9 9 16 7 32 -7 27 -24 25 -49 -5 -69 -55 -36 -124 -3 -144 70 -25 89 80
183 141 127z m1969 -113 c59 0 67 -19 40 -103 -31 -94 -58 -147 -76 -147 -20
0 -90 64 -116 107 -25 40 -23 106 5 147 16 25 17 25 63 11 27 -8 64 -15 84
-15z m-287 -389 c33 -36 126 -176 126 -189 0 -21 -69 -122 -83 -122 -24 0 -83
69 -117 135 -31 62 -32 67 -21 108 25 84 59 108 95 68z m-135 -462 c56 -67 63
-97 29 -131 -20 -20 -22 -20 -35 -3 -7 11 -13 29 -13 41 0 12 -16 46 -35 75
-40 61 -43 79 -16 79 11 0 40 -25 70 -61z m-80 -128 c16 -11 17 -91 1 -121
-19 -35 -74 -64 -152 -81 -82 -18 -94 -14 -84 24 6 25 88 135 114 153 41 28
98 39 121 25z m-1297 -50 c71 -89 256 -181 364 -181 48 0 67 -5 90 -22 144
-113 67 -163 -176 -115 -108 22 -133 30 -186 66 -64 43 -137 130 -162 193 -13
34 -13 40 2 63 21 33 39 32 68 -4z m-140 -293 c17 -18 54 -49 82 -69 47 -33
51 -39 50 -75 0 -21 -7 -52 -15 -69 -12 -26 -21 -30 -58 -33 -45 -3 -113 18
-143 45 -23 20 -23 69 -1 147 26 97 38 104 85 54z m1466 -85 c5 -10 12 -39 16
-65 7 -44 5 -47 -26 -71 -50 -37 -104 -60 -127 -52 -12 4 -33 30 -48 61 -34
69 -27 83 53 105 32 9 70 21 84 27 35 15 38 14 48 -5z m-1121 -210 c51 -14 87
-12 168 8 54 14 95 -1 95 -34 0 -35 -38 -115 -60 -127 -10 -5 -70 -10 -132
-10 -89 0 -122 4 -155 19 -47 22 -58 44 -48 104 12 72 14 73 132 40z m-259
-205 c5 -7 13 -44 17 -81 7 -66 6 -69 -21 -99 -40 -41 -96 -68 -143 -68 -35 0
-40 3 -51 33 -18 52 -25 194 -10 212 16 20 192 22 208 3z m1430 -110 c4 -49
-10 -74 -57 -97 -29 -15 -41 -17 -50 -8 -12 12 -15 86 -3 103 16 23 58 45 82
42 21 -3 25 -9 28 -40z m-400 -114 c70 -60 56 -92 -60 -135 -55 -21 -174 -40
-195 -32 -17 7 -16 30 3 85 19 56 47 84 105 102 74 23 101 20 147 -20z m-573
-28 c18 -13 55 -101 58 -140 3 -29 -49 -54 -137 -67 -103 -14 -152 -5 -170 30
-23 43 -47 137 -40 154 5 13 21 17 73 18 36 1 91 4 121 9 30 4 60 8 66 9 5 0
19 -5 29 -13z"/>
<path d="M3224 6384 c4 -9 1 -23 -5 -31 -7 -7 -9 -17 -5 -21 4 -4 12 1 17 11
6 9 21 17 34 17 18 0 25 5 25 20 0 16 -7 20 -36 20 -29 0 -35 -3 -30 -16z"/>
<path d="M2727 6345 c-29 -28 -37 -58 -12 -49 8 4 15 10 15 14 0 5 7 16 16 24
27 28 10 37 -19 11z"/>
<path d="M3206 6304 c-15 -39 87 -104 164 -104 37 0 50 4 48 13 -3 6 -17 13
-32 15 -27 3 -28 5 -22 45 l7 42 -21 -23 c-29 -31 -76 -29 -111 4 -23 22 -27
23 -33 8z"/>
<path d="M2838 6245 c-7 -7 2 -55 11 -55 17 1 33 19 29 36 -3 18 -28 30 -40
19z"/>
<path d="M3100 6203 c0 -16 9 -48 20 -72 11 -24 20 -50 20 -58 0 -8 5 -11 11
-7 11 7 5 63 -11 93 -5 9 -11 28 -15 44 -3 15 -10 27 -15 27 -6 0 -10 -12 -10
-27z"/>
<path d="M2740 6186 c-16 -49 -4 -100 31 -130 24 -22 28 -30 19 -46 -9 -16 -8
-20 7 -20 44 0 111 70 133 138 10 32 11 45 2 54 -9 9 -12 6 -12 -15 0 -15 -5
-27 -11 -27 -7 0 -22 -11 -35 -25 -16 -17 -34 -25 -58 -25 -32 0 -36 3 -42 35
-3 20 -4 49 0 65 8 43 -19 39 -34 -4z"/>
<path d="M3181 5924 c0 -11 3 -14 6 -6 3 7 2 16 -1 19 -3 4 -6 -2 -5 -13z"/>
<path d="M3210 5828 c0 -23 32 -98 42 -98 13 0 9 12 -17 65 -13 28 -25 42 -25
33z"/>
<path d="M3266 5674 c16 -56 9 -99 -24 -150 -35 -52 -38 -87 -8 -92 30 -6 64
18 91 64 31 53 31 78 2 123 -12 20 -27 45 -33 55 -6 11 -16 22 -24 24 -10 4
-11 -2 -4 -24z"/>
<path d="M3405 5021 c-95 -35 -120 -49 -159 -88 -38 -38 -76 -109 -76 -142 0
-27 43 -45 92 -38 69 10 140 26 152 35 6 5 29 14 51 20 23 6 60 28 83 48 56
48 58 87 6 144 -42 46 -70 50 -149 21z m40 -61 c-3 -5 -14 -10 -24 -10 -10 0
-24 -6 -30 -14 -7 -8 -25 -18 -41 -21 -16 -3 -31 -12 -33 -19 -6 -16 -47 -28
-47 -15 0 17 54 58 77 59 12 0 28 7 35 15 15 16 73 21 63 5z m85 -15 c7 -9 11
-17 9 -19 -24 -22 -101 -75 -111 -77 -45 -6 -47 14 -2 25 32 8 59 34 68 64 9
26 19 28 36 7z m-257 -109 c7 -18 -1 -26 -25 -26 -11 0 -18 7 -18 20 0 23 35
28 43 6z"/>
<path d="M632 2692 c-31 -24 -39 -60 -31 -145 15 -161 28 -317 34 -406 7 -102
20 -133 66 -157 16 -8 29 -20 29 -27 0 -32 -85 -125 -205 -225 -44 -37 -84
-71 -88 -77 -15 -19 3 -119 24 -137 24 -21 42 -15 95 31 23 20 55 47 70 60 16
13 51 42 78 65 71 59 178 167 199 200 11 15 22 49 26 75 7 45 7 46 41 44 50
-4 77 4 85 24 8 19 21 134 31 273 7 95 -6 164 -35 179 -23 13 -89 16 -118 7
-11 -4 -24 -14 -28 -24 -4 -9 -9 -95 -11 -191 -5 -175 -13 -217 -41 -207 -8 3
-28 -2 -44 -11 -15 -9 -31 -15 -34 -12 -2 3 0 139 6 302 11 323 11 324 -44
357 -39 24 -75 25 -105 2z"/>
<path d="M1600 2692 c-68 -11 -86 -58 -101 -266 l-11 -167 23 -26 c22 -23 29
-25 81 -19 73 7 82 -5 60 -83 -9 -31 -16 -90 -16 -131 l-1 -75 -36 -3 c-25 -2
-46 -13 -68 -36 -27 -28 -33 -42 -33 -81 -1 -36 4 -51 17 -61 25 -18 32 -18
191 11 76 14 147 25 158 23 20 -3 20 -9 17 -173 -2 -121 -7 -178 -17 -197 -8
-15 -14 -36 -14 -48 0 -24 54 -81 99 -104 30 -16 32 -16 56 8 14 14 25 35 26
48 0 13 5 75 10 138 5 63 13 157 18 208 4 59 12 97 22 106 22 21 78 36 135 36
61 0 84 17 84 61 0 20 -10 40 -29 59 -26 26 -34 29 -92 27 -91 -2 -109 11
-108 76 0 29 6 79 13 112 13 64 34 85 87 85 15 0 36 8 48 18 20 16 21 18 6 40
-9 12 -37 32 -61 44 -38 18 -45 25 -42 46 3 25 19 40 112 105 35 24 35 70 1
93 -21 14 -43 16 -128 11 -56 -3 -147 -11 -202 -18 -55 -7 -120 -13 -145 -13
l-45 -1 -1 40 c-2 52 -3 58 -12 72 -12 18 -74 40 -102 35z m326 -319 c8 -30
-5 -56 -30 -61 -9 -2 -35 5 -59 16 -23 11 -51 23 -62 27 -17 6 -13 10 25 25
25 10 62 18 82 19 33 1 38 -2 44 -26z m-15 -235 c16 -29 5 -162 -16 -194 -9
-14 -25 -24 -40 -24 -25 0 -55 23 -55 43 0 37 34 164 47 179 22 24 50 23 64
-4z"/>
<path d="M420 2481 c-33 -9 -60 -64 -60 -121 0 -25 -7 -103 -16 -173 -16 -126
-16 -129 3 -155 16 -21 33 -29 74 -35 69 -10 79 1 90 94 4 41 14 117 21 169
17 127 16 186 -2 204 -18 17 -76 26 -110 17z"/>
<path d="M3080 2297 c-34 -17 -44 -86 -29 -192 7 -49 8 -128 4 -206 -7 -121
-6 -128 14 -148 24 -24 54 -27 74 -6 18 17 31 96 22 135 -5 21 -1 34 14 49 48
48 83 14 79 -75 -3 -75 12 -99 56 -88 37 9 53 38 61 114 4 36 14 85 21 110 20
65 19 249 -2 278 -20 29 -37 28 -74 -5 -26 -24 -32 -38 -39 -96 -8 -69 -19
-87 -54 -87 -27 0 -70 47 -62 68 18 43 16 97 -4 130 -22 34 -41 39 -81 19z"/>
<path d="M3571 2264 c-25 -23 -41 -57 -76 -159 -25 -71 -45 -137 -45 -146 0
-9 -9 -45 -20 -80 -23 -70 -20 -104 11 -144 28 -35 53 -20 74 46 19 57 40 70
94 58 36 -8 51 -23 51 -52 0 -22 18 -59 34 -69 20 -13 63 -8 86 10 20 17 22
26 27 258 l6 241 -38 29 c-31 23 -50 29 -105 32 -63 4 -70 2 -99 -24z m90
-165 c15 -28 4 -107 -18 -131 -18 -20 -48 -24 -58 -8 -10 16 15 123 33 143 20
22 29 22 43 -4z"/>
<path d="M5178 2239 c-10 -5 -18 -15 -18 -22 -1 -7 -9 -30 -20 -52 -11 -22
-19 -50 -20 -61 0 -21 -9 -54 -51 -194 -30 -99 -35 -163 -15 -180 15 -12 23
-10 62 8 24 12 44 26 44 32 0 18 63 50 98 50 48 0 70 -16 78 -55 8 -44 39 -85
65 -85 10 0 37 16 59 37 l41 36 15 -21 c11 -16 26 -22 54 -22 50 0 60 18 60
103 0 84 9 127 26 127 8 0 18 -10 23 -22 5 -13 23 -61 41 -108 37 -97 60 -127
106 -136 54 -10 68 6 108 121 48 140 64 241 47 303 -18 68 -36 92 -71 92 -36
0 -45 -16 -53 -90 -7 -64 -25 -130 -35 -130 -4 0 -30 50 -59 110 -43 92 -57
112 -92 134 -49 31 -91 33 -116 6 -27 -29 -45 -141 -39 -235 4 -59 2 -89 -9
-115 l-15 -35 -12 29 c-6 16 -14 66 -17 110 -11 146 -60 246 -131 266 -47 13
-132 12 -154 -1z m128 -184 c7 -19 14 -48 14 -65 0 -25 -6 -33 -32 -45 -30
-12 -35 -12 -51 4 -16 16 -17 23 -6 67 20 83 50 99 75 39z"/>
<path d="M3964 2223 c-31 -32 -74 -107 -84 -148 -6 -22 -17 -65 -26 -96 -15
-50 -15 -60 0 -108 26 -89 87 -151 149 -151 82 0 166 144 175 300 6 109 1 130
-44 180 -34 38 -39 40 -94 40 -42 0 -63 -5 -76 -17z m87 -127 c10 -37 -35
-186 -56 -186 -8 0 -19 17 -26 39 -9 32 -8 48 6 92 25 75 34 91 52 87 9 -2 20
-16 24 -32z"/>
<path d="M4875 2216 c-20 -29 -31 -93 -49 -276 -14 -141 -13 -146 6 -178 23
-38 71 -66 99 -57 27 9 38 35 44 102 3 32 10 117 16 190 13 145 8 194 -22 224
-27 27 -75 25 -94 -5z"/>
<path d="M2845 2217 c-91 -23 -162 -101 -172 -190 -4 -37 0 -49 29 -87 33 -44
35 -45 95 -46 70 -2 113 -24 113 -59 0 -13 -10 -30 -25 -39 -38 -25 -80 -20
-118 14 -37 32 -56 37 -75 18 -27 -27 -3 -95 48 -135 34 -26 118 -23 202 9 40
15 68 66 68 122 0 68 -34 115 -113 157 -50 26 -78 55 -71 73 9 23 69 40 93 27
46 -25 91 -4 91 43 0 19 -68 83 -100 94 -14 5 -42 4 -65 -1z"/>
<path d="M4671 2201 c-11 -11 -23 -41 -26 -68 -16 -117 -38 -141 -60 -68 -29
98 -73 145 -136 145 -58 0 -68 -23 -74 -164 -2 -64 -11 -149 -19 -189 -15 -71
-16 -133 -2 -156 17 -27 128 4 162 46 l21 27 56 -37 c30 -20 66 -37 80 -37 43
0 51 22 58 174 4 77 14 171 23 208 17 74 11 109 -23 127 -28 15 -38 14 -60 -8z"/>
</g>
</svg>
